<svg width="40" height="38" viewBox="0 0 40 38" fill="none" xmlns="http://www.w3.org/2000/svg">
<path d="M40 4.62342V29.9563C40 32.023 38.4209 33.9193 36.4821 34.1749L35.8625 34.2602C32.5844 34.7289 27.9672 36.1777 24.2495 37.8396C22.9502 38.4148 21.5111 37.3708 21.5111 35.8581V6.22137C21.5111 5.43305 21.9308 4.70864 22.5904 4.32513C26.2483 2.21583 31.7849 0.340897 35.5427 0H35.6626C38.0612 0 40 2.06669 40 4.62342ZM17.4295 4.32513C13.7717 2.21583 8.23506 0.340897 4.47731 0H4.3374C1.93884 0 0 2.06669 0 4.62342V29.9563C0 32.023 1.57905 33.9193 3.51789 34.1749L4.13752 34.2602C7.41555 34.7289 12.0328 36.1777 15.7506 37.8396C17.0498 38.4148 18.4889 37.3708 18.4889 35.8581V6.22137C18.4916 5.83232 18.3943 5.44992 18.2075 5.11564C18.0208 4.78137 17.7517 4.50798 17.4295 4.32513ZM6.01639 10.7809H10.5137C10.9113 10.7809 11.2926 10.9492 11.5737 11.2489C11.8549 11.5486 12.0128 11.955 12.0128 12.3788C12.0128 12.8026 11.8549 13.2091 11.5737 13.5087C11.2926 13.8084 10.9113 13.9768 10.5137 13.9768H6.01639C5.6188 13.9768 5.2375 13.8084 4.95637 13.5087C4.67523 13.2091 4.51729 12.8026 4.51729 12.3788C4.51729 11.955 4.67523 11.5486 4.95637 11.2489C5.2375 10.9492 5.6188 10.7809 6.01639 10.7809ZM12.0128 20.3686H6.01639C5.6188 20.3686 5.2375 20.2002 4.95637 19.9006C4.67523 19.6009 4.51729 19.1944 4.51729 18.7706C4.51729 18.3468 4.67523 17.9404 4.95637 17.6407C5.2375 17.341 5.6188 17.1727 6.01639 17.1727H12.0128C12.4104 17.1727 12.7917 17.341 13.0728 17.6407C13.354 17.9404 13.5119 18.3468 13.5119 18.7706C13.5119 19.1944 13.354 19.6009 13.0728 19.9006C12.7917 20.2002 12.4104 20.3686 12.0128 20.3686Z" fill="#F1E153"/>
</svg>
