<svg width="40" height="40" viewBox="0 0 40 40" fill="none" xmlns="http://www.w3.org/2000/svg">
<path d="M28.3333 4.05H11.6667C6.66666 4.05 3.33333 7.38334 3.33333 12.3833V22.3833C3.33333 27.3833 6.66666 30.7167 11.6667 30.7167V34.2667C11.6667 35.6 13.15 36.4 14.25 35.65L21.6667 30.7167H28.3333C33.3333 30.7167 36.6667 27.3833 36.6667 22.3833V12.3833C36.6667 7.38334 33.3333 4.05 28.3333 4.05ZM20 24.3333C19.6685 24.3333 19.3505 24.2016 19.1161 23.9672C18.8817 23.7328 18.75 23.4149 18.75 23.0833C18.75 22.7518 18.8817 22.4339 19.1161 22.1995C19.3505 21.965 19.6685 21.8333 20 21.8333C20.3315 21.8333 20.6495 21.965 20.8839 22.1995C21.1183 22.4339 21.25 22.7518 21.25 23.0833C21.25 23.4149 21.1183 23.7328 20.8839 23.9672C20.6495 24.2016 20.3315 24.3333 20 24.3333ZM22.1 17.4167C21.45 17.85 21.25 18.1333 21.25 18.6V18.95C21.25 19.6333 20.6833 20.2 20 20.2C19.3167 20.2 18.75 19.6333 18.75 18.95V18.6C18.75 16.6667 20.1667 15.7167 20.7 15.35C21.3167 14.9333 21.5167 14.65 21.5167 14.2167C21.5167 13.3833 20.8333 12.7 20 12.7C19.1667 12.7 18.4833 13.3833 18.4833 14.2167C18.4833 14.9 17.9167 15.4667 17.2333 15.4667C16.55 15.4667 15.9833 14.9 15.9833 14.2167C15.9833 12 17.7833 10.2 20 10.2C22.2167 10.2 24.0167 12 24.0167 14.2167C24.0167 16.1167 22.6167 17.0667 22.1 17.4167Z" fill="#F1E153"/>
</svg>
