<svg width="33" height="33" viewBox="0 0 33 33" fill="none" xmlns="http://www.w3.org/2000/svg">
<path d="M30.25 4.46875H2.75C2.18625 4.46875 1.71875 4.00125 1.71875 3.4375C1.71875 2.87375 2.18625 2.40625 2.75 2.40625H30.25C30.8137 2.40625 31.2812 2.87375 31.2812 3.4375C31.2812 4.00125 30.8137 4.46875 30.25 4.46875Z" fill="#F1E153"/>
<path d="M5.04626 3.4375V19.8962C5.04626 21.2437 5.67876 22.5225 6.76501 23.3337L13.9288 28.6963C15.455 29.8375 17.5588 29.8375 19.085 28.6963L26.2488 23.3337C27.335 22.5225 27.9675 21.2437 27.9675 19.8962V3.4375H5.04626ZM22 18.9062H11C10.4363 18.9062 9.96876 18.4388 9.96876 17.875C9.96876 17.3112 10.4363 16.8438 11 16.8438H22C22.5638 16.8438 23.0313 17.3112 23.0313 17.875C23.0313 18.4388 22.5638 18.9062 22 18.9062ZM22 12.0312H11C10.4363 12.0312 9.96876 11.5638 9.96876 11C9.96876 10.4363 10.4363 9.96875 11 9.96875H22C22.5638 9.96875 23.0313 10.4363 23.0313 11C23.0313 11.5638 22.5638 12.0312 22 12.0312Z" fill="#F1E153"/>
</svg>
