<svg width="40" height="40" viewBox="0 0 40 40" fill="none" xmlns="http://www.w3.org/2000/svg">
<path d="M21.25 26.5333H22.3333C23.4167 26.5333 24.3167 25.5667 24.3167 24.4C24.3167 22.95 23.8 22.6667 22.95 22.3667L21.2667 21.7833V26.5333H21.25Z" fill="#F1E153"/>
<path d="M19.95 3.16333C10.75 3.19666 3.3 10.68 3.33333 19.88C3.36667 29.08 10.85 36.53 20.05 36.4967C29.25 36.4633 36.7 28.98 36.6667 19.78C36.6333 10.58 29.15 3.14666 19.95 3.16333ZM23.7667 19.9967C25.0667 20.4467 26.8167 21.4133 26.8167 24.3967C26.8167 26.9633 24.8 29.03 22.3333 29.03H21.25V29.9967C21.25 30.68 20.6833 31.2467 20 31.2467C19.3167 31.2467 18.75 30.68 18.75 29.9967V29.03H18.15C15.4167 29.03 13.2 26.73 13.2 23.8967C13.2 23.2133 13.7667 22.6467 14.45 22.6467C15.1333 22.6467 15.7 23.2133 15.7 23.8967C15.7 25.3467 16.8 26.53 18.15 26.53H18.75V20.8967L16.2333 19.9967C14.9333 19.5467 13.1833 18.58 13.1833 15.5967C13.1833 13.03 15.2 10.9633 17.6667 10.9633H18.75V9.99666C18.75 9.31333 19.3167 8.74666 20 8.74666C20.6833 8.74666 21.25 9.31333 21.25 9.99666V10.9633H21.85C24.5833 10.9633 26.8 13.2633 26.8 16.0967C26.8 16.78 26.2333 17.3467 25.55 17.3467C24.8667 17.3467 24.3 16.78 24.3 16.0967C24.3 14.6467 23.2 13.4633 21.85 13.4633H21.25V19.0967L23.7667 19.9967Z" fill="#F1E153"/>
<path d="M15.7033 15.6133C15.7033 17.0633 16.22 17.3467 17.07 17.6467L18.7533 18.23V13.4633H17.67C16.5867 13.4633 15.7033 14.43 15.7033 15.6133Z" fill="#F1E153"/>
</svg>
